<svg width="20" height="20" viewBox="0 0 20 20" fill="none" xmlns="http://www.w3.org/2000/svg">
<path fill-rule="evenodd" clip-rule="evenodd" d="M1.3335 2C1.3335 1.46957 1.54421 0.960859 1.91928 0.585786C2.29436 0.210714 2.80306 0 3.3335 0L14.2762 0L18.6668 4.39067V18C18.6668 18.5304 18.4561 19.0391 18.081 19.4142C17.706 19.7893 17.1973 20 16.6668 20H3.3335C2.80306 20 2.29436 19.7893 1.91928 19.4142C1.54421 19.0391 1.3335 18.5304 1.3335 18V2ZM3.3335 4H8.00016V5.33333H3.3335V4ZM12.0002 8H3.3335V9.33333H12.0002V8ZM3.3335 12H12.0002V13.3333H3.3335V12Z" fill="#848491"/>
</svg>
