<svg width="20" height="20" viewBox="0 0 20 20" fill="none" xmlns="http://www.w3.org/2000/svg">
<path d="M4.66667 10.6666H4V9.33325H4.66667C4.84348 9.33325 5.01305 9.40349 5.13807 9.52851C5.2631 9.65354 5.33333 9.82311 5.33333 9.99992C5.33333 10.1767 5.2631 10.3463 5.13807 10.4713C5.01305 10.5963 4.84348 10.6666 4.66667 10.6666ZM9.33333 13.3333V9.33325H10C10.1768 9.33325 10.3464 9.40349 10.4714 9.52851C10.5964 9.65354 10.6667 9.82311 10.6667 9.99992V12.6666C10.6667 12.8434 10.5964 13.013 10.4714 13.138C10.3464 13.263 10.1768 13.3333 10 13.3333H9.33333Z" fill="#FF7777"/>
<path fill-rule="evenodd" clip-rule="evenodd" d="M1.3335 2C1.3335 1.46957 1.54421 0.960859 1.91928 0.585786C2.29436 0.210714 2.80306 0 3.3335 0L14.2762 0L18.6668 4.39067V18C18.6668 18.5304 18.4561 19.0391 18.081 19.4142C17.706 19.7893 17.1973 20 16.6668 20H3.3335C2.80306 20 2.29436 19.7893 1.91928 19.4142C1.54421 19.0391 1.3335 18.5304 1.3335 18V2ZM4.66683 8H2.66683V14.6667H4.00016V12H4.66683C5.19726 12 5.70597 11.7893 6.08104 11.4142C6.45612 11.0391 6.66683 10.5304 6.66683 10C6.66683 9.46957 6.45612 8.96086 6.08104 8.58579C5.70597 8.21071 5.19726 8 4.66683 8ZM10.0002 8H8.00016V14.6667H10.0002C10.5306 14.6667 11.0393 14.456 11.4144 14.0809C11.7894 13.7058 12.0002 13.1971 12.0002 12.6667V10C12.0002 9.46957 11.7894 8.96086 11.4144 8.58579C11.0393 8.21071 10.5306 8 10.0002 8ZM13.3335 14.6667V8H17.3335V9.33333H14.6668V10.6667H16.0002V12H14.6668V14.6667H13.3335Z" fill="#FF7777"/>
</svg>
