<svg width="20" height="20" viewBox="0 0 20 20" fill="none" xmlns="http://www.w3.org/2000/svg">
<path d="M9.33301 10.6666H9.99967C10.1765 10.6666 10.3461 10.5963 10.4711 10.4713C10.5961 10.3463 10.6663 10.1767 10.6663 9.99992C10.6663 9.82311 10.5961 9.65354 10.4711 9.52851C10.3461 9.40349 10.1765 9.33325 9.99967 9.33325H9.33301V10.6666Z" fill="#FFCB77"/>
<path fill-rule="evenodd" clip-rule="evenodd" d="M1.33301 2C1.33301 1.46957 1.54372 0.960859 1.91879 0.585786C2.29387 0.210714 2.80257 0 3.33301 0L14.2757 0L18.6663 4.39067V18C18.6663 18.5304 18.4556 19.0391 18.0806 19.4142C17.7055 19.7893 17.1968 20 16.6663 20H3.33301C2.80257 20 2.29387 19.7893 1.91879 19.4142C1.54372 19.0391 1.33301 18.5304 1.33301 18V2ZM5.33301 9.33333H2.66634V8H6.66634V14.6667H2.66634V12H3.99967V13.3333H5.33301V9.33333ZM7.99967 8H9.99967C10.5301 8 11.0388 8.21071 11.4139 8.58579C11.789 8.96086 11.9997 9.46957 11.9997 10C11.9997 10.5304 11.789 11.0391 11.4139 11.4142C11.0388 11.7893 10.5301 12 9.99967 12H9.33301V14.6667H7.99967V8ZM13.333 8H17.333V9.33333H14.6663V13.3333H15.9997V11.3333H17.333V14.6667H13.333V8Z" fill="#FFCB77"/>
</svg>
