<svg width="20" height="20" viewBox="0 0 20 20" fill="none" xmlns="http://www.w3.org/2000/svg">
<path d="M4 10.6666H4.66667C4.84348 10.6666 5.01305 10.5963 5.13807 10.4713C5.2631 10.3463 5.33333 10.1767 5.33333 9.99992C5.33333 9.82311 5.2631 9.65354 5.13807 9.52851C5.01305 9.40349 4.84348 9.33325 4.66667 9.33325H4V10.6666Z" fill="#C6C6CE"/>
<path fill-rule="evenodd" clip-rule="evenodd" d="M1.3335 2C1.3335 1.46957 1.54421 0.960859 1.91928 0.585786C2.29436 0.210714 2.80306 0 3.3335 0L14.2762 0L18.6668 4.39067V18C18.6668 18.5304 18.4561 19.0391 18.081 19.4142C17.706 19.7893 17.1973 20 16.6668 20H3.3335C2.80306 20 2.29436 19.7893 1.91928 19.4142C1.54421 19.0391 1.3335 18.5304 1.3335 18V2ZM2.66683 8H4.66683C5.19726 8 5.70597 8.21071 6.08104 8.58579C6.45612 8.96086 6.66683 9.46957 6.66683 10C6.66683 10.5304 6.45612 11.0391 6.08104 11.4142C5.70597 11.7893 5.19726 12 4.66683 12H4.00016V14.6667H2.66683V8ZM13.3335 8H17.3335V9.33333H14.6668V13.3333H16.0002V11.3333H17.3335V14.6667H13.3335V8ZM9.3335 11.4907V14.6667H8.00016V8H9.3335V8.50933L10.6668 11.176V8H12.0002V14.6667H10.6668V14.1573L9.3335 11.4907Z" fill="#00B48A"/>
</svg>
