<svg width="32" height="32" viewBox="0 0 32 32" fill="none" xmlns="http://www.w3.org/2000/svg">
<path d="M2.66675 25.3333C2.66675 27.6 4.40008 29.3333 6.66675 29.3333H25.3334C27.6001 29.3333 29.3334 27.6 29.3334 25.3333V14.6667H2.66675V25.3333ZM25.3334 5.33333H22.6667V4C22.6667 3.2 22.1334 2.66666 21.3334 2.66666C20.5334 2.66666 20.0001 3.2 20.0001 4V5.33333H12.0001V4C12.0001 3.2 11.4667 2.66666 10.6667 2.66666C9.86675 2.66666 9.33341 3.2 9.33341 4V5.33333H6.66675C4.40008 5.33333 2.66675 7.06666 2.66675 9.33333V12H29.3334V9.33333C29.3334 7.06666 27.6001 5.33333 25.3334 5.33333Z" fill="black"/>
</svg>
