<svg width="32" height="32" viewBox="0 0 32 32" fill="none" xmlns="http://www.w3.org/2000/svg">
<path fill-rule="evenodd" clip-rule="evenodd" d="M24.0106 3.98267C25.7866 2.96667 28 4.24933 28 6.29733V23.036C28 25.0827 25.788 26.3667 24.0106 25.3507L18.6666 22.2973V7.036L24.0106 3.98267ZM16 8H9.33329C7.68003 7.99834 6.08512 8.61104 4.85818 9.71916C3.63125 10.8273 2.85983 12.3518 2.69368 13.9967C2.52753 15.6416 2.9785 17.2895 3.95904 18.6206C4.93959 19.9517 6.37976 20.871 7.99996 21.2V26C7.99996 26.8841 8.35115 27.7319 8.97627 28.357C9.60139 28.9821 10.4492 29.3333 11.3333 29.3333C12.2173 29.3333 13.0652 28.9821 13.6903 28.357C14.3154 27.7319 14.6666 26.8841 14.6666 26V21.3333H16V8Z" fill="black"/>
</svg>
