<svg width="32" height="32" viewBox="0 0 32 32" fill="none" xmlns="http://www.w3.org/2000/svg">
<path d="M21.3333 14.6667C23.5466 14.6667 25.3199 12.88 25.3199 10.6667C25.3199 8.45334 23.5466 6.66667 21.3333 6.66667C19.1199 6.66667 17.3333 8.45334 17.3333 10.6667C17.3333 12.88 19.1199 14.6667 21.3333 14.6667ZM10.6666 14.6667C12.8799 14.6667 14.6533 12.88 14.6533 10.6667C14.6533 8.45334 12.8799 6.66667 10.6666 6.66667C8.45325 6.66667 6.66659 8.45334 6.66659 10.6667C6.66659 12.88 8.45325 14.6667 10.6666 14.6667ZM10.6666 17.3333C7.55992 17.3333 1.33325 18.8933 1.33325 22V24C1.33325 24.7333 1.93325 25.3333 2.66659 25.3333H18.6666C19.3999 25.3333 19.9999 24.7333 19.9999 24V22C19.9999 18.8933 13.7733 17.3333 10.6666 17.3333ZM21.3333 17.3333C20.9466 17.3333 20.5066 17.36 20.0399 17.4C20.0666 17.4133 20.0799 17.44 20.0933 17.4533C21.6133 18.56 22.6666 20.04 22.6666 22V24C22.6666 24.4667 22.5733 24.92 22.4266 25.3333H29.3333C30.0666 25.3333 30.6666 24.7333 30.6666 24V22C30.6666 18.8933 24.4399 17.3333 21.3333 17.3333Z" fill="black"/>
</svg>
