<svg width="32" height="32" viewBox="0 0 32 32" fill="none" xmlns="http://www.w3.org/2000/svg">
<path d="M5.33341 26.6667H26.6667C28.1334 26.6667 29.3334 25.4667 29.3334 24C29.3334 22.5333 28.1334 21.3333 26.6667 21.3333H5.33341C3.86675 21.3333 2.66675 22.5333 2.66675 24C2.66675 25.4667 3.86675 26.6667 5.33341 26.6667ZM5.33341 22.6667H8.00008V25.3333H5.33341V22.6667ZM2.66675 7.99999C2.66675 9.46666 3.86675 10.6667 5.33341 10.6667H26.6667C28.1334 10.6667 29.3334 9.46666 29.3334 7.99999C29.3334 6.53333 28.1334 5.33333 26.6667 5.33333H5.33341C3.86675 5.33333 2.66675 6.53333 2.66675 7.99999ZM8.00008 9.33333H5.33341V6.66666H8.00008V9.33333ZM5.33341 18.6667H26.6667C28.1334 18.6667 29.3334 17.4667 29.3334 16C29.3334 14.5333 28.1334 13.3333 26.6667 13.3333H5.33341C3.86675 13.3333 2.66675 14.5333 2.66675 16C2.66675 17.4667 3.86675 18.6667 5.33341 18.6667ZM5.33341 14.6667H8.00008V17.3333H5.33341V14.6667Z" fill="black"/>
</svg>
